<svg version="1.1" id="Layer_1" xmlns="http://www.w3.org/2000/svg" x="0" y="0" viewBox="0 0 91 91" xml:space="preserve" width="91" height="91"><title>cloud wind sun 2</title><g class="nc-icon-wrapper" fill="#eceff4"><path d="M45.9 37.3c-2.8 0-5.4 1.2-7.3 3.2-1.3 1.4-1.2 3.6.2 4.9 1.4 1.3 3.6 1.2 4.9-.2.6-.6 1.3-.9 2.2-.9 1.6 0 3 1.3 3 3 0 1.6-1.3 3-3 3H9.6c-1.9 0-3.5 1.6-3.5 3.5s1.6 3.5 3.5 3.5h36.3c5.5 0 10-4.5 10-10s-4.5-10-10-10z"/><path d="M33.3 62.3H9.6c-1.9 0-3.5 1.6-3.5 3.5s1.6 3.5 3.5 3.5h23.7c1.6 0 3 1.3 3 3 0 1.6-1.3 3-3 3-.8 0-1.6-.3-2.2-.9-1.3-1.4-3.5-1.5-4.9-.2-1.4 1.3-1.5 3.5-.2 4.9 1.9 2 4.5 3.2 7.3 3.2 5.5 0 10-4.5 10-10s-4.5-10-10-10z"/><path d="M62.9 30.3h-.8c-.3-1.3-.8-2.8-1.7-4.4-2.8-5.2-7.7-8.1-13.9-8.1s-11.2 2.9-13.9 8.1c-.8 1.6-1.4 3.3-1.7 4.6-6.2 1.2-10.5 5.8-11 12.2-.1 1.9 1.3 3.6 3.2 3.7 1.9.1 3.6-1.3 3.7-3.2.3-3.6 3-5.9 7.1-5.9 1.9 0 3.4-1.5 3.5-3.4 0 0 .1-2.4 1.3-4.7 1.5-2.9 4-4.3 7.7-4.3 3.6 0 6.1 1.4 7.7 4.2 1.3 2.4 1.5 4.9 1.5 4.9.1 1.9 1.6 3.3 3.5 3.3h3.8c4.3 0 7.1 2.6 7.1 6.5 0 3.1-2.2 6.5-7.1 6.5-1.9 0-3.5 1.6-3.5 3.5s1.6 3.5 3.5 3.5c8 0 14.1-5.8 14.1-13.5 0-7.8-6-13.5-14.1-13.5z"/><path d="M69.5 8.8c-4.6 0-8.9 2-11.8 5.5-1 1.2-.8 2.9.4 3.9 1.2 1 2.9.8 3.9-.4 1.9-2.3 4.7-3.6 7.6-3.6 5.5 0 9.9 4.4 9.9 9.9 0 2.3-.8 4.6-2.3 6.4-1 1.2-.8 2.9.3 3.9.5.4 1.1.7 1.8.7.8 0 1.6-.3 2.1-1 2.3-2.8 3.6-6.3 3.6-9.9-.1-8.5-7-15.4-15.5-15.4z"/></g></svg>