<svg version="1.1" id="Layer_1" xmlns="http://www.w3.org/2000/svg" x="0" y="0" viewBox="0 0 91 91" xml:space="preserve" width="91" height="91"><title>cloud wind 2</title><g class="nc-icon-wrapper" fill="#eceff4"><path d="M71.3 29.8h-1.1c-.4-1.6-1-3.4-2-5.3-3.3-6.2-9.1-9.6-16.5-9.6-9.2 0-15.8 5.2-18.2 14.2-.6 2.1.7 4.3 2.9 4.9 2.1.6 4.3-.7 4.9-2.9 2.2-8.3 8.4-8.3 10.4-8.3 4.4 0 7.4 1.7 9.4 5.1 1.6 2.9 1.8 6 1.8 6 .1 2.1 1.9 3.8 4 3.8h4.5c5.2 0 8.7 3.2 8.7 8 0 3.8-2.7 8-8.7 8H7.1c-2.2 0-4 1.8-4 4s1.8 4 4 4H71.2c9.5 0 16.7-6.9 16.7-16 0-9.2-7-15.9-16.6-15.9z"/><path d="M17.3 47.4h33.5c2.2 0 4-1.8 4-4s-1.8-4-4-4H17.3c-2.2 0-4 1.8-4 4s1.8 4 4 4z"/><path d="M65.1 68.1h-42c-2.2 0-4 1.8-4 4s1.8 4 4 4h42c2.2 0 4-1.8 4-4s-1.8-4-4-4z"/></g></svg>