<svg version="1.1" id="Layer_1" xmlns="http://www.w3.org/2000/svg" x="0" y="0" viewBox="0 0 91 91" xml:space="preserve" width="91" height="91"><title>cloud drizzle lightning sun</title><g class="nc-icon-wrapper" fill="#eceff4"><path d="M74.1 35.3c0-8.6-7-15.6-15.6-15.6-3.1 0-6.2.9-8.7 2.7-1.4.9-1.7 2.8-.8 4.2.9 1.4 2.8 1.7 4.2.8 1.6-1.1 3.5-1.6 5.4-1.6 5.3 0 9.6 4.3 9.6 9.6 0 1.6-.4 3.1-1.1 4.4-.8 1.5-.2 3.3 1.3 4 .4.2.9.3 1.4.3 1.1 0 2.1-.6 2.7-1.6 1-2.2 1.6-4.6 1.6-7.2z"/><path d="M58.5 15c1.7 0 3-1.3 3-3V6.3c0-1.7-1.3-3-3-3s-3 1.3-3 3V12c0 1.7 1.4 3 3 3z"/><path d="M87.6 32.3h-5.7c-1.7 0-3 1.3-3 3s1.3 3 3 3h5.7c1.7 0 3-1.3 3-3s-1.4-3-3-3z"/><path d="M75 21.8c.8 0 1.5-.3 2.1-.9l4-4c1.2-1.2 1.2-3.1 0-4.2-1.2-1.2-3.1-1.2-4.2 0l-4 4c-1.2 1.2-1.2 3.1 0 4.2.6.7 1.3.9 2.1.9z"/><path d="M77.1 49.7c-1.2-1.2-3.1-1.2-4.2 0-1.2 1.2-1.2 3.1 0 4.2l4 4c.6.6 1.4.9 2.1.9.8 0 1.5-.3 2.1-.9 1.2-1.2 1.2-3.1 0-4.2l-4-4z"/><path d="M39.9 21c.6.6 1.4.9 2.1.9.8 0 1.5-.3 2.1-.9 1.2-1.2 1.2-3.1 0-4.2l-4-4c-1.2-1.2-3.1-1.2-4.2 0-1.2 1.2-1.2 3.1 0 4.2l4 4z"/><path d="M51.2 41.4h-1.5c-.4-1.6-1-3.6-2.1-5.6-2.3-4.3-6.9-9.3-16.1-9.3-9.2 0-13.8 5.1-16 9.4-1.1 2.1-1.7 4.2-2 5.8C5.8 42.9.4 48.9.4 56.9c0 5 2.4 9.7 6.4 12.5 1.6 1.1 3.8.8 4.9-.8 1.1-1.6.8-3.8-.8-4.9-2.2-1.5-3.4-4-3.4-6.8 0-5.1 3.7-8.5 9.2-8.5 1.9 0 3.4-1.5 3.5-3.4 0-1.2.7-11.5 11.4-11.5 10.7 0 11.6 10.4 11.7 11.6.1 1.9 1.6 3.3 3.5 3.3h4.5c5.5 0 9.2 3.4 9.2 8.5 0 4.2-2.7 7.5-6.9 8.3-1.9.4-3.1 2.2-2.8 4.1.3 1.7 1.8 2.8 3.4 2.8.2 0 .4 0 .7-.1 7.4-1.4 12.6-7.7 12.6-15.2-.1-8.9-6.9-15.4-16.3-15.4z"/><path d="M23.1 56.9c-1.9-.5-3.8.6-4.3 2.5l-1.2 4.4c-.5 1.9.6 3.8 2.5 4.3.3.1.6.1.9.1 1.5 0 3-1 3.4-2.6l1.2-4.4c.5-1.8-.6-3.7-2.5-4.3z"/><path d="M18.8 73.2c-1.9-.5-3.8.6-4.3 2.5l-1.2 4.4c-.5 1.9.6 3.8 2.5 4.3.3.1.6.1.9.1 1.5 0 3-1 3.4-2.6l1.2-4.4c.5-1.9-.6-3.8-2.5-4.3z"/><path d="M45.5 65.9h-4.4l5.5-7.7c.3-.5.4-1.1.1-1.6-.3-.5-.8-.8-1.3-.8H34.5c-.6 0-1.2.4-1.4 1L27 72.7c-.2.5-.1 1 .2 1.4.3.4.7.6 1.2.6h3.2l-4.2 11c-.3.7 0 1.4.6 1.8.2.1.5.2.8.2.4 0 .8-.2 1.1-.5l16.6-18.8c.4-.4.5-1.1.2-1.6-.1-.5-.6-.9-1.2-.9z"/></g></svg>