<svg version="1.1" id="Layer_1" xmlns="http://www.w3.org/2000/svg" x="0" y="0" viewBox="0 0 91 91" xml:space="preserve" width="91" height="91"><title>cloud</title><g class="nc-icon-wrapper" fill="#eceff4"><path d="M62.8 69H26.6c-.5 0-.9-.1-1.3-.2-8-1.2-13.8-7.6-13.8-15.8 0-8.1 5.4-14.3 13.2-15.7.4-1.6 1-3.6 2-5.6 3.2-6.2 9-9.6 16.5-9.6 7.4 0 13.3 3.4 16.5 9.6 1 1.9 1.6 3.8 2 5.3h1.1c9.7 0 16.7 6.7 16.7 16 0 9.1-7.2 16-16.7 16zm-34.6-8h34.6c6 0 8.7-4.1 8.7-8 0-4.8-3.5-8-8.7-8h-4.5c-2.1 0-3.9-1.7-4-3.8 0 0-.2-3.1-1.8-6-1.9-3.5-5-5.1-9.4-5.1-10.3-.1-10.9 9.9-10.9 11-.1 2.2-1.8 3.9-4 3.9-5.2 0-8.7 3.2-8.7 8 0 3.8 2.7 8 8.7 8z"/></g></svg>