<svg version="1.1" id="Layer_1" xmlns="http://www.w3.org/2000/svg" x="0" y="0" viewBox="0 0 91 91" xml:space="preserve" width="91" height="91"><title>cloud rain 2 sun 2</title><g class="nc-icon-wrapper" fill="#eceff4"><path d="M58 34.4h-1.1c-.4-1.6-1-3.4-2-5.3-3.3-6.2-9.2-9.6-16.5-9.6-7.4 0-13.3 3.4-16.5 9.6-1 2-1.6 4-2 5.6-7.8 1.4-13.2 7.6-13.2 15.7 0 5.8 2.9 10.9 7.9 13.8 1.9 1.1 4.4.4 5.5-1.5 1.1-1.9.4-4.4-1.5-5.5-2.4-1.4-3.8-3.9-3.8-6.8 0-4.8 3.5-8 8.7-8 2.2 0 3.9-1.7 4-3.9 0-1.1.6-11.1 10.9-11.1 4.4 0 7.5 1.7 9.4 5.1 1.6 2.9 1.8 6 1.8 6 .1 2.1 1.9 3.8 4 3.8H58c5.2 0 8.7 3.2 8.7 8 0 3.9-2.7 8-8.7 8h-2.2c-2.2 0-4 1.8-4 4s1.8 4 4 4H58c9.5 0 16.7-6.9 16.7-16s-7-15.9-16.7-15.9z"/><path d="M66.1 8.6c-5.4 0-10.5 2.4-14 6.6-1.1 1.3-.9 3.2.4 4.2 1.3 1.1 3.2.9 4.2-.4 2.3-2.8 5.7-4.4 9.4-4.4 6.7 0 12.2 5.5 12.2 12.2 0 2.9-1 5.7-2.9 7.9-1.1 1.3-.9 3.2.4 4.2.6.5 1.3.7 1.9.7.9 0 1.7-.4 2.3-1.1 2.8-3.3 4.3-7.5 4.3-11.8 0-9.9-8.2-18.1-18.2-18.1z"/><path d="M39.6 66.6c-.8 0-1.5.4-2 1-.9 1.2-4 5.5-4 8.5 0 3.9 3 6.3 6 6.3 2.9 0 6-2.4 6-6.3 0-3.1-3-7.3-4-8.5-.5-.6-1.2-1-2-1z"/><path d="M31.6 55.1c-.8-1-2.4-1-3.2 0-.7.9-3 4.2-3 6.5 0 3 2.3 4.8 4.6 4.8s4.6-1.8 4.6-4.8c0-2.3-2.3-5.6-3-6.5z"/><path d="M45.7 49.2c-.5 0-.9.2-1.2.6-.6.8-2.6 3.6-2.6 5.6 0 2.5 1.9 4 3.8 4s3.8-1.5 3.8-4c0-1.3-2.1-6.2-3.8-6.2z"/></g></svg>