<svg version="1.1" id="Layer_1" xmlns="http://www.w3.org/2000/svg" x="0" y="0" viewBox="0 0 91 91" xml:space="preserve" width="91" height="91"><title>cloud snow sun</title><g class="nc-icon-wrapper" fill="#eceff4"><path d="M74.4 34.2c0-8.6-7-15.6-15.6-15.6-3.1 0-6.2.9-8.7 2.7-1.4.9-1.7 2.8-.8 4.2.9 1.4 2.8 1.7 4.2.8 1.6-1.1 3.5-1.6 5.4-1.6 5.3 0 9.6 4.3 9.6 9.6 0 1.6-.4 3.1-1.1 4.4-.8 1.5-.2 3.3 1.3 4 .3.2.8.3 1.3.3 1.1 0 2.1-.6 2.7-1.6 1.1-2.2 1.7-4.7 1.7-7.2z"/><path d="M58.8 13.9c1.7 0 3-1.3 3-3V5.2c0-1.7-1.3-3-3-3s-3 1.3-3 3v5.7c0 1.6 1.3 3 3 3z"/><path d="M87.8 31.2h-5.7c-1.7 0-3 1.3-3 3s1.3 3 3 3h5.7c1.7 0 3-1.3 3-3 0-1.6-1.3-3-3-3z"/><path d="M75.3 20.7c.8 0 1.5-.3 2.1-.9l4-4c1.2-1.2 1.2-3.1 0-4.2-1.2-1.2-3.1-1.2-4.2 0l-4 4c-1.2 1.2-1.2 3.1 0 4.2.5.6 1.3.9 2.1.9z"/><path d="M77.4 48.6c-1.2-1.2-3.1-1.2-4.2 0-1.2 1.2-1.2 3.1 0 4.2l4 4c.6.6 1.4.9 2.1.9.8 0 1.5-.3 2.1-.9 1.2-1.2 1.2-3.1 0-4.2l-4-4z"/><path d="M40.1 19.8c.6.6 1.4.9 2.1.9.8 0 1.5-.3 2.1-.9 1.2-1.2 1.2-3.1 0-4.2l-4-4c-1.2-1.2-3.1-1.2-4.2 0-1.2 1.2-1.2 3.1 0 4.2l4 4z"/><path d="M51.5 39.7h-1.1c-.4-1.6-1-3.4-2-5.3-3.3-6.2-9.2-9.6-16.5-9.6-7.4 0-13.3 3.4-16.5 9.6-1 2-1.6 4-2 5.6C5.5 41.5.2 47.6.2 55.7c0 4.4 1.7 8.4 4.7 11.4 1.6 1.5 4.1 1.5 5.7-.1 1.5-1.6 1.5-4.1-.1-5.7-1.5-1.5-2.3-3.5-2.3-5.7 0-4.8 3.5-8 8.7-8 2.2 0 3.9-1.7 4-3.9 0-1.1.6-11.1 10.9-11.1 4.4 0 7.5 1.7 9.4 5.1 1.6 2.9 1.8 6 1.8 6 .1 2.1 1.9 3.8 4 3.8h4.5c5.2 0 8.7 3.2 8.7 8 0 3.5-2 6.3-5.3 7.5-2.1.7-3.2 3-2.5 5.1.6 1.7 2.1 2.7 3.8 2.7.4 0 .9-.1 1.3-.2 6.5-2.2 10.6-8.1 10.6-15 .1-9.1-6.9-15.9-16.6-15.9z"/><path d="M32.3 61.4c1.7 0 3-1.3 3-3v-2.8c0-1.7-1.3-3-3-3s-3 1.3-3 3v2.8c0 1.7 1.3 3 3 3z"/><path d="M32.3 66.7c-1 0-2.1.4-2.8 1.2-.8.8-1.2 1.8-1.2 2.8 0 1.1.4 2.1 1.2 2.8.7.7 1.8 1.2 2.8 1.2 1.1 0 2.1-.4 2.8-1.2.8-.8 1.2-1.8 1.2-2.8 0-1-.4-2.1-1.2-2.8-.7-.7-1.8-1.2-2.8-1.2z"/><path d="M32.3 80c-1.7 0-3 1.3-3 3v2.8c0 1.7 1.3 3 3 3s3-1.3 3-3V83c0-1.7-1.4-3-3-3z"/><path d="M42.9 67.6c.5 0 1-.1 1.5-.4l2.5-1.4c1.4-.8 1.9-2.7 1.1-4.1-.8-1.4-2.7-1.9-4.1-1.1L41.4 62c-1.4.8-1.9 2.7-1.1 4.1.6.9 1.6 1.5 2.6 1.5z"/><path d="M20.1 74.3l-2.5 1.4c-1.4.8-1.9 2.7-1.1 4.1.6 1 1.6 1.5 2.6 1.5.5 0 1-.1 1.5-.4l2.5-1.4c1.4-.8 1.9-2.7 1.1-4.1-.8-1.5-2.6-2-4.1-1.1z"/><path d="M46.9 75.7l-2.5-1.4c-1.4-.8-3.3-.3-4.1 1.1-.8 1.4-.3 3.3 1.1 4.1l2.5 1.4c.5.3 1 .4 1.5.4 1 0 2-.5 2.6-1.5.8-1.5.3-3.3-1.1-4.1z"/><path d="M17.7 65.8l2.5 1.4c.5.3 1 .4 1.5.4 1 0 2-.5 2.6-1.5.8-1.4.3-3.3-1.1-4.1l-2.5-1.4c-1.4-.8-3.3-.3-4.1 1.1-.8 1.4-.4 3.2 1.1 4.1z"/></g></svg>