<svg version="1.1" id="Layer_1" xmlns="http://www.w3.org/2000/svg" x="0" y="0" viewBox="0 0 91 91" xml:space="preserve" width="91" height="91"><title>cloud wind 2 sun</title><g class="nc-icon-wrapper" fill="#eceff4"><path d="M57.6 41.7h-.8c-.3-1.3-.8-2.8-1.7-4.4-2.8-5.2-7.7-8.1-13.9-8.1-7.7 0-13.3 4.4-15.3 12-.5 1.9.6 3.8 2.5 4.3s3.8-.6 4.3-2.5c1.8-6.8 6.9-6.8 8.6-6.8 8.2 0 9.1 7.6 9.1 9.1.1 1.9 1.6 3.3 3.5 3.3h3.8c4.3 0 7.1 2.6 7.1 6.5 0 3.1-2.2 6.5-7.1 6.5H3.9C2 61.6.4 63.2.4 65.1s1.6 3.5 3.5 3.5H57.6c8 0 14.1-5.8 14.1-13.5s-6-13.4-14.1-13.4z"/><path d="M75.4 43.4c1-1.9 1.5-4 1.5-6.1 0-7.3-6-13.3-13.3-13.3-2.7 0-5.2.8-7.4 2.3-1.3.9-1.6 2.6-.7 3.8.8 1.3 2.6 1.6 3.8.7 1.3-.9 2.8-1.3 4.4-1.3 4.3 0 7.8 3.5 7.8 7.8 0 1.3-.3 2.5-.9 3.6-.7 1.3-.2 3 1.2 3.7.4.2.8.3 1.3.3.8 0 1.8-.6 2.3-1.5z"/><path d="M63.6 20.5c1.5 0 2.8-1.2 2.8-2.8V13c0-1.5-1.2-2.8-2.8-2.8-1.5 0-2.8 1.2-2.8 2.8v4.8c0 1.5 1.3 2.7 2.8 2.7z"/><path d="M87.8 34.5H83c-1.5 0-2.8 1.2-2.8 2.8 0 1.5 1.2 2.8 2.8 2.8h4.8c1.5 0 2.8-1.2 2.8-2.8 0-1.6-1.3-2.8-2.8-2.8z"/><path d="M77.3 26.3c.7 0 1.4-.3 1.9-.8l3.4-3.4c1.1-1.1 1.1-2.8 0-3.9s-2.8-1.1-3.9 0l-3.4 3.4c-1.1 1.1-1.1 2.8 0 3.9.6.5 1.3.8 2 .8z"/><path d="M79.3 49.1c-1.1-1.1-2.8-1.1-3.9 0s-1.1 2.8 0 3.9l3.4 3.4c.5.5 1.2.8 1.9.8s1.4-.3 1.9-.8c1.1-1.1 1.1-2.8 0-3.9l-3.3-3.4z"/><path d="M47.9 25.4c.5.5 1.2.8 1.9.8s1.4-.3 1.9-.8c1.1-1.1 1.1-2.8 0-3.9l-3.4-3.4c-1.1-1.1-2.8-1.1-3.9 0s-1.1 2.8 0 3.9l3.5 3.4z"/><path d="M12.5 56.7h28c1.9 0 3.5-1.6 3.5-3.5s-1.6-3.5-3.5-3.5h-28c-1.9 0-3.5 1.6-3.5 3.5 0 2 1.5 3.5 3.5 3.5z"/><path d="M52.4 73.7H17.3c-1.9 0-3.5 1.6-3.5 3.5s1.6 3.5 3.5 3.5h35.1c1.9 0 3.5-1.6 3.5-3.5s-1.6-3.5-3.5-3.5z"/></g></svg>