<svg version="1.1" id="Layer_1" xmlns="http://www.w3.org/2000/svg" x="0" y="0" viewBox="0 0 91 91" xml:space="preserve" width="91" height="91"><title>clouds sun</title><g class="nc-icon-wrapper" fill="#eceff4"><path d="M51.5 57h-1.1c-.4-1.6-1-3.4-2-5.3-3.3-6.2-9.2-9.6-16.5-9.6-7.4 0-13.3 3.4-16.5 9.6-1 2-1.6 4-2 5.6C5.6 58.7.2 64.8.2 72.9.2 81.1 6 87.5 14 88.7c.4.1.9.2 1.3.2h36.2c9.5 0 16.7-6.9 16.7-16 0-9.2-7-15.9-16.7-15.9zm0 23.9H16.9c-6 0-8.7-4.1-8.7-8 0-4.8 3.5-8 8.7-8 2.1 0 3.9-1.7 4-3.9 0 0 .1-3.1 1.7-6 1.8-3.4 4.9-5.1 9.2-5.1 4.4 0 7.5 1.7 9.4 5.1 1.6 2.9 1.8 6 1.8 6 .1 2.1 1.9 3.8 4 3.8h4.5c5.2 0 8.7 3.2 8.7 8 0 4-2.7 8.1-8.7 8.1z"/><path d="M78.9 46.3h-.6c-.3-1.1-.7-2.3-1.4-3.6-2.3-4.4-6.5-6.8-11.7-6.8-.7 0-1.3 0-2 .1-1.1-8.6-8.4-15.2-17.3-15.2-8.1 0-15.1 5.5-17 13.4-.4 1.6.6 3.2 2.2 3.6 1.6.4 3.2-.6 3.6-2.2 1.2-5.2 5.8-8.8 11.1-8.8 6.3 0 11.4 5.1 11.4 11.4-1.6 1.1-2.9 2.6-3.8 4.5-1.6 3.1-1.7 6.1-1.7 6.5 0 1.6 1.2 3 2.9 3.1 1.6.1 3-1.2 3.1-2.9.1-1.3.7-7.5 7.4-7.5 6.8 0 7.5 6.3 7.5 7.5.1 1.6 1.4 2.9 3 2.9h3.1c3.5 0 5.8 2.1 5.8 5.3 0 2.6-1.8 5.3-5.8 5.3h-3.6c-1.7 0-3 1.3-3 3s1.3 3 3 3h3.6c6.7 0 11.8-4.9 11.8-11.3.3-6.5-4.7-11.3-11.6-11.3z"/><path d="M46 14.6c1.7 0 3-1.3 3-3V5.1c0-1.7-1.3-3-3-3s-3 1.3-3 3v6.5c0 1.7 1.3 3 3 3z"/><path d="M12.8 41.3h6.5c1.7 0 3-1.3 3-3s-1.3-3-3-3h-6.5c-1.7 0-3 1.3-3 3s1.3 3 3 3z"/><path d="M64.9 22.4c.8 0 1.5-.3 2.1-.9l4.6-4.6c1.2-1.2 1.2-3.1 0-4.2-1.2-1.2-3.1-1.2-4.2 0l-4.6 4.6c-1.2 1.2-1.2 3.1 0 4.2.5.6 1.3.9 2.1.9z"/><path d="M25 21.5c.6.6 1.4.9 2.1.9.8 0 1.5-.3 2.1-.9 1.2-1.2 1.2-3.1 0-4.2l-4.6-4.6c-1.2-1.2-3.1-1.2-4.2 0-1.2 1.2-1.2 3.1 0 4.2l4.6 4.6z"/></g></svg>