<svg version="1.1" id="Layer_1" xmlns="http://www.w3.org/2000/svg" x="0" y="0" viewBox="0 0 91 91" xml:space="preserve" width="91" height="91"><title>cloud lightning sun 2</title><g class="nc-icon-wrapper" fill="#eceff4"><path d="M58 35h-1.1c-.4-1.6-1-3.4-2-5.3-3.3-6.2-9.2-9.6-16.5-9.6-7.4 0-13.3 3.4-16.5 9.6-1 2-1.6 4-2 5.6C12.1 36.7 6.7 42.9 6.7 51c0 7.5 4.9 13.7 12.3 15.5 2.1.5 4.3-.8 4.8-3 .5-2.1-.8-4.3-3-4.8-3.7-.9-6.1-3.9-6.1-7.7 0-4.8 3.5-8 8.7-8 2.2 0 3.9-1.7 4-3.9C27.4 38 28 28 38.3 28c4.4 0 7.5 1.7 9.4 5.1 1.6 2.9 1.8 6 1.8 6 .1 2.1 1.9 3.8 4 3.8H58c5.2 0 8.7 3.2 8.7 8 0 3.9-2.7 8-8.7 8-2.2 0-4 1.8-4 4s1.8 4 4 4c9.5 0 16.7-6.9 16.7-16 0-9.2-7-15.9-16.7-15.9z"/><path d="M66.1 9.2c-5.4 0-10.5 2.4-14 6.6-1.1 1.3-.9 3.2.4 4.2 1.3 1.1 3.2.9 4.2-.4 2.3-2.8 5.7-4.4 9.4-4.4 6.7 0 12.2 5.5 12.2 12.2 0 2.9-1 5.7-2.9 7.9-1.1 1.3-.9 3.2.4 4.2.6.5 1.3.7 1.9.7.9 0 1.7-.4 2.3-1.1 2.8-3.3 4.3-7.5 4.3-11.8 0-10-8.2-18.1-18.2-18.1z"/><path d="M47.3 60.1h-4.4l5.5-7.7c.3-.5.4-1.1.1-1.6-.3-.5-.8-.8-1.3-.8H36.3c-.6 0-1.2.4-1.4 1l-6.1 15.8c-.2.5-.1 1 .2 1.4.3.4.7.6 1.2.6h3.2l-4.2 11c-.3.7 0 1.4.6 1.8.2.1.5.2.8.2.4 0 .8-.2 1.1-.5l16.6-18.8c.4-.4.5-1.1.2-1.6 0-.5-.6-.8-1.2-.8z"/></g></svg>