<svg version="1.1" id="Layer_1" xmlns="http://www.w3.org/2000/svg" x="0" y="0" viewBox="0 0 91 91" xml:space="preserve" width="91" height="91"><title>cloud wind</title><g class="nc-icon-wrapper" fill="#eceff4"><path d="M50.8 30.5c-3.2 0-6.4 1.4-8.6 3.7-1.5 1.6-1.4 4.1.2 5.7 1.6 1.5 4.1 1.4 5.7-.2.7-.8 1.7-1.2 2.7-1.2 2.1 0 3.8 1.7 3.8 3.8 0 2.1-1.7 3.8-3.8 3.8H7.2c-2.2 0-4 1.8-4 4s1.8 4 4 4h43.6c6.5 0 11.8-5.3 11.8-11.8-.1-6.5-5.3-11.8-11.8-11.8z"/><path d="M35.7 60.4H7.2c-2.2 0-4 1.8-4 4s1.8 4 4 4h28.4c2.1 0 3.8 1.7 3.8 3.8 0 2.1-1.7 3.8-3.8 3.8-1.1 0-2-.4-2.8-1.2-1.5-1.6-4-1.7-5.7-.2-1.6 1.5-1.7 4-.2 5.7 2.2 2.4 5.3 3.7 8.6 3.7 6.5 0 11.8-5.3 11.8-11.8.1-6.5-5.1-11.8-11.6-11.8z"/><path d="M71.1 22H70c-.4-1.6-1-3.4-2-5.3-3.3-6.2-9.2-9.6-16.5-9.6-7.4 0-13.3 3.4-16.5 9.6-1 2-1.6 4-2 5.6-7.4 1.3-12.6 6.9-13.1 14.4-.2 2.2 1.5 4.1 3.7 4.3 2.2.2 4.1-1.5 4.3-3.7.3-4.4 3.7-7.3 8.6-7.3 2.2 0 3.9-1.7 4-3.9 0-1.1.6-11.1 10.9-11.1 4.4 0 7.5 1.7 9.4 5.1 1.6 2.9 1.8 6 1.8 6 .1 2.1 1.9 3.8 4 3.8h4.5c5.2 0 8.7 3.2 8.7 8 0 3.9-2.7 8-8.7 8-2.2 0-4 1.8-4 4s1.8 4 4 4c9.5 0 16.7-6.9 16.7-16S80.8 22 71.1 22z"/></g></svg>