<svg version="1.1" id="Layer_1" xmlns="http://www.w3.org/2000/svg" x="0" y="0" viewBox="0 0 91 91" xml:space="preserve" width="91" height="91"><title>cloud sun 2</title><g class="nc-icon-wrapper" fill="#eceff4"><path d="M58 42.4h-1.1c-.4-1.6-1-3.4-2-5.3-3.3-6.2-9.2-9.6-16.5-9.6-7.4 0-13.3 3.4-16.5 9.6-1 2-1.6 4-2 5.6-7.8 1.4-13.2 7.6-13.2 15.7 0 8.2 5.7 14.5 13.8 15.8.4.1.9.2 1.3.2H58c9.5 0 16.7-6.9 16.7-16 0-9.3-7-16-16.7-16zm0 24H23.4c-6 0-8.7-4.1-8.7-8 0-4.8 3.5-8 8.7-8 2.2 0 3.9-1.7 4-3.9 0-1.1.6-11.1 10.9-11.1 4.4 0 7.5 1.7 9.4 5.1 1.6 2.9 1.8 6 1.8 6 .1 2.1 1.9 3.8 4 3.8H58c5.2 0 8.7 3.2 8.7 8 0 4-2.7 8.1-8.7 8.1z"/><path d="M66.1 16.6c-5.4 0-10.5 2.4-14 6.6-1.1 1.3-.9 3.2.4 4.2 1.3 1.1 3.2.9 4.2-.4 2.3-2.8 5.7-4.4 9.4-4.4 6.7 0 12.2 5.5 12.2 12.2 0 2.9-1 5.7-2.9 7.9-1.1 1.3-.9 3.2.4 4.2.6.5 1.3.7 1.9.7.9 0 1.7-.4 2.3-1.1 2.8-3.3 4.3-7.5 4.3-11.8 0-9.9-8.2-18.1-18.2-18.1z"/></g></svg>