<svg version="1.1" id="Layer_1" xmlns="http://www.w3.org/2000/svg" x="0" y="0" viewBox="0 0 91 91" xml:space="preserve" width="91" height="91"><title>compass east</title><g class="nc-icon-wrapper" fill="#eceff4"><path d="M89.1 45.5c0-24-19.6-43.6-43.6-43.6S1.9 21.5 1.9 45.5s19.6 43.6 43.6 43.6 43.6-19.6 43.6-43.6zm-79.2 0c0-19.6 16-35.6 35.6-35.6s35.6 16 35.6 35.6-16 35.6-35.6 35.6-35.6-16-35.6-35.6z"/><path d="M67.5 48.3c1.2-.4 1.9-1.6 1.9-2.8 0-1.2-.8-2.4-1.9-2.8L29.6 28.3c-1.3-.5-2.7-.1-3.5 1-.4.5-.6 1.1-.6 1.8s.2 1.3.7 1.9l10.2 12.5L26.2 58c-.9 1.1-.9 2.6-.1 3.7s2.2 1.5 3.5 1l37.9-14.4zm-24.9-.9c.9-1.1.9-2.7 0-3.8L38 37.9l20 7.6-20 7.6 4.6-5.7z"/></g></svg>