<svg version="1.1" id="Layer_1" xmlns="http://www.w3.org/2000/svg" x="0" y="0" viewBox="0 0 91 91" xml:space="preserve" width="91" height="91"><title>compass west</title><g class="nc-icon-wrapper" fill="#eceff4"><path d="M1.9 45.5c0 24 19.6 43.6 43.6 43.6s43.6-19.6 43.6-43.6S69.5 1.9 45.5 1.9 1.9 21.5 1.9 45.5zm79.2 0c0 19.6-16 35.6-35.6 35.6S9.9 65.1 9.9 45.5s16-35.6 35.6-35.6 35.6 16 35.6 35.6z"/><path d="M23.5 42.7c-1.2.4-1.9 1.6-1.9 2.8 0 1.2.8 2.4 1.9 2.8l37.9 14.4c1.3.5 2.7.1 3.5-1 .4-.5.6-1.1.6-1.8s-.2-1.3-.7-1.9L54.6 45.5 64.8 33c.9-1.1.9-2.6.1-3.7s-2.2-1.5-3.5-1L23.5 42.7zm24.9.9c-.9 1.1-.9 2.7 0 3.8l4.7 5.7-20-7.6 20-7.6-4.7 5.7z"/></g></svg>