<svg version="1.1" id="Layer_1" xmlns="http://www.w3.org/2000/svg" x="0" y="0" viewBox="0 0 91 91" xml:space="preserve" width="91" height="91"><title>degrees celcius</title><g class="nc-icon-wrapper" fill="#eceff4"><path d="M83.4 65.2c-1.9-1-4.4-.3-5.4 1.6-2.3 4.3-7.1 6.5-14.1 6.5-12.1 0-18.3-6.1-18.3-18.1V35.8c0-12 6.1-18.1 18.3-18.1 7 0 11.8 2.2 14.1 6.5 1 1.9 3.5 2.7 5.4 1.6 1.9-1 2.7-3.5 1.6-5.4-2.6-4.9-8.4-10.8-21.1-10.8-16.7 0-26.3 9.5-26.3 26.1v19.4c0 16.6 9.6 26.1 26.3 26.1 12.7 0 18.5-5.9 21.1-10.8 1.1-1.8.3-4.2-1.6-5.2z"/><path d="M17.9 9.7c-7.8 0-12.4 5.2-12.4 13.9s4.6 13.9 12.4 13.9c3.7 0 12.4-1.4 12.4-13.9 0-8.7-4.7-13.9-12.4-13.9zm0 19.9c-1.9 0-4.4 0-4.4-5.9s2.5-5.9 4.4-5.9c1.9 0 4.4 0 4.4 5.9s-2.6 5.9-4.4 5.9z"/></g></svg>