<?xml version="1.0" encoding="utf-8"?>
<!-- Svg Vector Icons : http://www.onlinewebfonts.com/icon -->
<!DOCTYPE svg PUBLIC "-//W3C//DTD SVG 1.1//EN" "http://www.w3.org/Graphics/SVG/1.1/DTD/svg11.dtd">
<svg version="1.1" xmlns="http://www.w3.org/2000/svg" xmlns:xlink="http://www.w3.org/1999/xlink" x="0px" y="0px" viewBox="0 0 1000 1000" enable-background="new 0 0 1000 1000" xml:space="preserve">
<metadata> Svg Vector Icons : http://www.onlinewebfonts.com/icon </metadata>
<g><path d="M982.8,871.5l-427.5-801c-10.7-20-31.5-32.6-54.3-32.6H501c-22.7,0-43.6,12.5-54.3,32.5l-429.4,801c-10.2,19.1-9.7,42.1,1.4,60.8c11.2,18.5,31.2,29.9,52.9,29.9h856.8c21.6,0,41.7-11.3,52.9-29.9C992.4,913.6,992.9,890.6,982.8,871.5z M71.6,900.5L501,99.5l427.5,801H71.6z M439.3,408.6v184.8c0,34,27.6,61.6,61.6,61.6c34,0,61.6-27.6,61.6-61.6V408.6c0-34-27.6-61.6-61.6-61.6C466.9,347,439.3,374.5,439.3,408.6z M439.3,777.3c0,34,27.6,61.6,61.6,61.6c34,0,61.6-27.6,61.6-61.6S535,715.6,501,715.6C466.9,715.6,439.3,743.2,439.3,777.3z"/></g>
</svg>