<svg version="1.1" id="Layer_1" xmlns="http://www.w3.org/2000/svg" x="0" y="0" viewBox="0 0 91 91" xml:space="preserve" width="91" height="91"><title>flag</title><g class="nc-icon-wrapper" fill="#eceff4"><path d="M78.3 15.5c0-.2-.1-.4-.2-.6 0 0 0-.1-.1-.1l-.3-.6c-.1-.2-.3-.4-.4-.5l-.1-.1c-.2-.1-.3-.3-.5-.4h-.1c-.2-.1-.4-.2-.5-.3 0 0-.1 0-.1-.1-.2-.1-.4-.1-.6-.2h-.2c-.2 0-.5-.1-.7-.1h-.1c-.2 0-.4 0-.6.1h-.1c-.2 0-.4.1-.5.1l-59 21.4c-1.6.6-2.6 2.1-2.6 3.8 0 1.7 1 3.2 2.6 3.8l56.1 20.6v25.1c0 2.2 1.8 4 4 4s4-1.8 4-4V16.3c0-.2 0-.5-.1-.7.1 0 .1-.1.1-.1zM27.2 37.9l43.1-15.8v31.7L27.2 37.9z"/><path d="M74.4 9.6c1.3 0 2.6-.5 3.5-1.5.9-.9 1.5-2.2 1.5-3.5 0-1.3-.5-2.6-1.5-3.5-.9-.9-2.2-1.5-3.5-1.5-1.3 0-2.6.5-3.5 1.5-.9.9-1.5 2.2-1.5 3.5 0 1.3.5 2.6 1.5 3.5.9 1 2.2 1.5 3.5 1.5z"/></g></svg>