<svg version="1.1" id="Layer_1" xmlns="http://www.w3.org/2000/svg" x="0" y="0" viewBox="0 0 91 91" xml:space="preserve" width="91" height="91"><title>hail</title><g class="nc-icon-wrapper" fill="#eceff4"><path d="M31.8 14.8c-2.1-.6-4.3.7-4.9 2.8l-6.7 25.1c-.6 2.1.7 4.3 2.8 4.9.3.1.7.1 1 .1 1.8 0 3.4-1.2 3.9-3l6.7-25.1c.6-2-.6-4.2-2.8-4.8z"/><path d="M20.7 52.3c-1.2 0-2.3.5-3.2 1.3-.8.8-1.3 2-1.3 3.2 0 1.2.5 2.3 1.3 3.2.8.8 2 1.3 3.2 1.3 1.2 0 2.4-.5 3.2-1.3.8-.8 1.3-2 1.3-3.2 0-1.2-.5-2.3-1.3-3.2-.9-.8-2-1.3-3.2-1.3z"/><path d="M36.7 67.3c-1.2 0-2.4.5-3.2 1.3-.8.8-1.3 2-1.3 3.2 0 1.2.5 2.3 1.3 3.2.8.8 2 1.3 3.2 1.3 1.2 0 2.3-.5 3.2-1.3.8-.8 1.3-2 1.3-3.2 0-1.2-.5-2.4-1.3-3.2-.8-.8-2-1.3-3.2-1.3z"/><path d="M60.7 52.3c-1.2 0-2.3.5-3.2 1.3-.8.8-1.3 2-1.3 3.2 0 1.2.5 2.3 1.3 3.2.8.8 2 1.3 3.2 1.3 1.2 0 2.4-.5 3.2-1.3.8-.8 1.3-2 1.3-3.2 0-1.2-.5-2.4-1.3-3.2-.9-.8-2-1.3-3.2-1.3z"/><path d="M47.9 29.8c-2.1-.6-4.3.7-4.9 2.8l-6.7 25.1c-.6 2.1.7 4.3 2.8 4.9.3.1.7.1 1 .1 1.8 0 3.4-1.2 3.9-3l6.7-25.1c.6-2-.7-4.2-2.8-4.8z"/><path d="M71.8 14.8c-2.1-.6-4.3.7-4.9 2.8l-6.7 25.1c-.6 2.1.7 4.3 2.8 4.9.3.1.7.1 1 .1 1.8 0 3.4-1.2 3.9-3l6.7-25.1c.6-2-.6-4.2-2.8-4.8z"/></g></svg>