<svg version="1.1" id="Layer_1" xmlns="http://www.w3.org/2000/svg" x="0" y="0" viewBox="0 0 91 91" xml:space="preserve" width="91" height="91"><title>moon 25</title><g class="nc-icon-wrapper" fill="#eceff4"><path d="M47.9 76.5c-11.1 0-21.4-6-26.9-15.5-4.1-7.2-5.2-15.5-3.1-23.5s7.3-14.7 14.4-18.8c4.1-2.4 8.6-3.7 13.3-4.1 1.7-.1 3.3.9 4 2.4.7 1.6.3 3.4-1 4.5-7.3 6.6-9.1 17.5-4.2 26 3.7 6.4 10.6 10.4 18.1 10.4 2.2 0 4.4-.4 6.5-1 1.6-.5 3.4 0 4.4 1.4 1 1.4 1.1 3.2.1 4.7-2.6 3.9-6.1 7.1-10.2 9.5-4.7 2.5-10 4-15.4 4zm-12-50.7c-5.1 3.1-8.7 7.9-10.3 13.7-1.6 5.9-.8 12.1 2.3 17.5 4.1 7.1 11.7 11.5 19.9 11.5 3.8 0 7.6-1 11-2.8-8.9-1.1-16.9-6.3-21.5-14.2-4.5-8-4.9-17.5-1.4-25.7z"/></g></svg>