<svg version="1.1" id="Layer_1" xmlns="http://www.w3.org/2000/svg" x="0" y="0" viewBox="0 0 91 91" xml:space="preserve" width="91" height="91"><title>moon 50</title><g class="nc-icon-wrapper" fill="#eceff4"><path d="M47.2 78.1c-11.6 0-22.5-6.3-28.3-16.3-9-15.6-3.6-35.6 11.9-44.6 5.3-3.1 11.5-4.6 17.6-4.3 1.5.1 2.8.9 3.4 2.2.7 1.3.5 2.9-.3 4.1-5 7.2-5.4 16.8-1 24.3 4.1 7 11.6 11.4 19.8 11.4.6 0 1.2 0 1.8-.1 1.5-.1 2.9.6 3.7 1.8.8 1.2.9 2.8.2 4.1-2.9 5.5-7.2 10-12.6 13.1-4.9 2.8-10.5 4.3-16.2 4.3zm-5.8-56.6c-2.3.5-4.5 1.4-6.6 2.6-11.7 6.9-15.8 22-9 33.7 4.4 7.6 12.6 12.3 21.4 12.3 4.3 0 8.5-1.1 12.3-3.3 2.1-1.2 4-2.7 5.6-4.4-8.9-1.6-16.8-7-21.4-14.9-4.6-8-5.3-17.5-2.3-26z"/></g></svg>