<svg version="1.1" id="Layer_1" xmlns="http://www.w3.org/2000/svg" x="0" y="0" viewBox="0 0 91 91" xml:space="preserve" width="91" height="91"><title>sun set</title><g class="nc-icon-wrapper" fill="#eceff4"><path d="M45.5 26.3c2.2 0 4-1.8 4-4v-8.1c0-2.2-1.8-4-4-4s-4 1.8-4 4v8.1c0 2.2 1.8 4 4 4z"/><path d="M74.8 55.6c0 2.2 1.8 4 4 4h8.1c2.2 0 4-1.8 4-4s-1.8-4-4-4h-8.1c-2.3 0-4 1.8-4 4z"/><path d="M4.1 59.6h8.1c2.2 0 4-1.8 4-4s-1.8-4-4-4H4.1c-2.2 0-4 1.8-4 4s1.8 4 4 4z"/><path d="M69 36.1c1 0 2-.4 2.8-1.2l5.8-5.8c1.6-1.6 1.6-4.1 0-5.7-1.6-1.6-4.1-1.6-5.7 0l-5.8 5.8c-1.6 1.6-1.6 4.1 0 5.7.9.8 1.9 1.2 2.9 1.2z"/><path d="M19.2 34.9c.8.8 1.8 1.2 2.8 1.2 1 0 2-.4 2.8-1.2 1.6-1.6 1.6-4.1 0-5.7L19 23.4c-1.6-1.6-4.1-1.6-5.7 0-1.6 1.6-1.6 4.1 0 5.7l5.9 5.8z"/><path d="M25.5 64.7c.9 2 3.3 2.9 5.3 2 2-.9 2.9-3.3 2-5.3-.8-1.8-1.3-3.8-1.3-5.8 0-7.7 6.3-14 14-14s14 6.3 14 14c0 2-.4 4-1.3 5.8-.9 2 0 4.4 2 5.3.5.2 1.1.4 1.7.4 1.5 0 3-.9 3.6-2.3 1.3-2.9 2-6 2-9.1 0-12.1-9.9-22-22-22s-22 9.9-22 22c0 3.1.7 6.1 2 9z"/><path d="M86.9 72.8H4.1c-2.2 0-4 1.8-4 4s1.8 4 4 4h82.8c2.2 0 4-1.8 4-4s-1.8-4-4-4z"/><path d="M49.5 51.5l-4 4-4-4c-1.2-1.2-3.1-1.2-4.2 0-1.2 1.2-1.2 3.1 0 4.2l6.1 6.1c.6.6 1.4.9 2.1.9s1.5-.3 2.1-.9l6.1-6.1c1.2-1.2 1.2-3.1 0-4.2-1.1-1.1-3-1.1-4.2 0z"/></g></svg>