<svg version="1.1" id="Layer_1" xmlns="http://www.w3.org/2000/svg" x="0" y="0" viewBox="0 0 91 91" xml:space="preserve" width="91" height="91"><title>umbrella</title><g class="nc-icon-wrapper" fill="#eceff4"><path d="M45.5.1C21.1.1 1.3 18 1.3 40c0 2.2 1.8 4 4.1 4 1.7 0 3.2-1 3.7-2.6.2-.5 2.2-5 8.7-5 6 0 8.1 3.8 8.6 4.7.1.3.3.7.5 1 .7 1.1 2 1.8 3.4 1.8 1.3 0 2.5-.6 3.3-1.7.2-.3.3-.5.4-.8.6-.9 3.5-5 11.4-5 8.6 0 11.3 4.7 11.5 5.1.1.2.2.5.4.7.7 1.1 2 1.7 3.3 1.7 1.4 0 2.6-.7 3.4-1.8.2-.3.3-.6.4-.9.3-.6 2.3-4.8 8.6-4.8 6.4 0 8.4 4.4 8.6 4.9.6 1.6 2.1 2.6 3.7 2.6h.4c2.2 0 4-1.8 4-4C89.7 18 69.9.1 45.5.1zm27.4 28.4c-6.2 0-10.2 2.5-12.7 5-2.9-2.5-7.6-5-14.9-5-7.3 0-12 2.5-14.9 5-2.5-2.5-6.5-5-12.7-5-2.5 0-4.6.4-6.4 1C16.2 17.1 29.7 8.1 45.5 8.1c15.9 0 29.4 9 34.2 21.6-1.9-.7-4.1-1.2-6.8-1.2z"/><path d="M66.3 72.5c-2.2 0-4 1.8-4 4 0 3.5-2.9 6.4-6.4 6.4s-6.4-2.9-6.4-6.5V46.1c0-2.2-1.8-4-4-4s-4 1.8-4 4v30.4c0 7.9 6.5 14.4 14.4 14.4s14.4-6.5 14.4-14.4c0-2.2-1.8-4-4-4z"/></g></svg>