<svg version="1.1" id="Layer_1" xmlns="http://www.w3.org/2000/svg" x="0" y="0" viewBox="0 0 91 91" xml:space="preserve" width="91" height="91"><title>clouds sun 2</title><g class="nc-icon-wrapper" fill="#eceff4"><path d="M51.5 49.1h-1.1c-.4-1.6-1-3.4-2-5.3-3.3-6.2-9.2-9.6-16.5-9.6-7.4 0-13.3 3.4-16.5 9.6-1 2-1.6 4-2 5.6C5.6 50.8.2 57 .2 65.1S6 79.6 14 80.8c.4.1.9.2 1.3.2h36.2c9.5 0 16.7-6.9 16.7-16 0-9.2-7-15.9-16.7-15.9zm0 24H16.9c-6 0-8.7-4.1-8.7-8 0-4.8 3.5-8 8.7-8 2.2 0 3.9-1.7 4-3.9 0-1.1.6-11.1 10.9-11.1 4.4 0 7.5 1.7 9.4 5.1 1.6 2.9 1.8 6 1.8 6 .1 2.1 1.9 3.8 4 3.8h4.5c5.2 0 8.7 3.2 8.7 8 0 3.9-2.7 8.1-8.7 8.1z"/><path d="M78.9 38.4h-.6c-.3-1.1-.7-2.3-1.4-3.6-2-3.8-5.5-6.2-9.8-6.7C65.5 17.7 56.7 9.9 45.9 9.9c-10 0-18.6 6.8-20.9 16.5-.4 1.6.6 3.2 2.2 3.6 1.6.4 3.2-.6 3.6-2.2 1.7-7 7.8-11.9 15-11.9 7.6 0 13.9 5.3 15.2 12.6-3.3 1-5.9 3.1-7.5 6.3-1.6 3.1-1.7 6.1-1.7 6.5 0 1.6 1.2 3 2.9 3.1h.1c1.6 0 2.9-1.3 3-2.9.1-1.3.7-7.5 7.4-7.5 6.8 0 7.5 6.3 7.5 7.5.1 1.6 1.4 2.9 3 2.9h3.1c3.5 0 5.8 2.1 5.8 5.3 0 2.6-1.8 5.3-5.8 5.3h-3.6c-1.7 0-3 1.3-3 3s1.3 3 3 3h3.6c6.7 0 11.8-4.9 11.8-11.3.2-6.5-4.8-11.3-11.7-11.3z"/></g></svg>