<svg version="1.1" id="Layer_1" xmlns="http://www.w3.org/2000/svg" x="0" y="0" viewBox="0 0 91 91" xml:space="preserve" width="91" height="91"><title>cloud fog sun 2</title><g class="nc-icon-wrapper" fill="#eceff4"><path d="M56.7 19c2.3-2.8 5.7-4.4 9.4-4.4 6.7 0 12.2 5.5 12.2 12.2 0 2.9-1 5.7-2.9 7.9-1.1 1.3-.9 3.2.4 4.2.6.5 1.3.7 1.9.7.9 0 1.7-.4 2.3-1.1 2.8-3.3 4.3-7.5 4.3-11.8 0-10-8.2-18.2-18.2-18.2-5.4 0-10.5 2.4-14 6.6-1.1 1.3-.9 3.2.4 4.2 1.3 1.1 3.1 1 4.2-.3z"/><path d="M10.7 54.4c2.2 0 4-1.8 4-4 0-4.8 3.5-8 8.7-8 2.2 0 3.9-1.7 4-3.9 0-1.1.6-11.1 10.9-11.1 4.4 0 7.5 1.7 9.4 5.1 1.6 2.9 1.8 6 1.8 6 .1 2.1 1.9 3.8 4 3.8H58c5.2 0 8.7 3.2 8.7 8 0 2.2 1.8 4 4 4s4-1.8 4-4c0-9.3-7-16-16.7-16h-1.1c-.4-1.6-1-3.4-2-5.3-3.3-6.2-9.2-9.6-16.5-9.6-7.4 0-13.3 3.4-16.5 9.6-1 2-1.6 4-2 5.6C12.1 36 6.7 42.2 6.7 50.3c0 2.3 1.8 4.1 4 4.1z"/><path d="M62.3 64c0-1.9-1.6-3.5-3.5-3.5H10.3c-1.9 0-3.5 1.6-3.5 3.5s1.6 3.5 3.5 3.5h48.5c1.9 0 3.5-1.5 3.5-3.5z"/><path d="M80.1 75.4H24.9c-1.9 0-3.5 1.6-3.5 3.5s1.6 3.5 3.5 3.5h55.2c1.9 0 3.5-1.6 3.5-3.5s-1.6-3.5-3.5-3.5z"/><path d="M71.1 60H71c-2.2 0-4 1.8-4 4s1.8 4 4 4h.2c2.2 0 4-1.8 4-4-.1-2.2-1.9-4-4.1-4z"/></g></svg>