<svg version="1.1" id="Layer_1" xmlns="http://www.w3.org/2000/svg" x="0" y="0" viewBox="0 0 91 91" xml:space="preserve" width="91" height="91"><title>cloud hail sun</title><g class="nc-icon-wrapper" fill="#eceff4"><path d="M23.8 54.8c-1.9-.5-3.8.6-4.3 2.5l-3.4 12.6c-.5 1.9.6 3.8 2.5 4.3.3.1.6.1.9.1 1.5 0 3-1 3.4-2.6l3.4-12.6c.4-1.8-.7-3.8-2.5-4.3z"/><path d="M14.7 76.8c-.6.7-1 1.5-1 2.5 0 .9.4 1.8 1 2.5.7.6 1.6 1 2.5 1 .9 0 1.8-.4 2.5-1 .7-.7 1-1.6 1-2.5 0-.9-.4-1.8-1-2.5-1.4-1.3-3.7-1.3-5 0z"/><path d="M23.9 84.5c-.7.6-1 1.6-1 2.5 0 .9.4 1.8 1 2.5.7.6 1.6 1 2.5 1 .9 0 1.8-.4 2.5-1 .6-.7 1-1.6 1-2.5 0-.9-.4-1.8-1-2.5-1.4-1.3-3.7-1.3-5 0z"/><path d="M37.2 76.8c-.7.7-1 1.5-1 2.5 0 .9.4 1.8 1 2.5.6.6 1.5 1 2.5 1 .9 0 1.8-.4 2.5-1 .7-.7 1-1.6 1-2.5 0-.9-.4-1.8-1-2.5-1.3-1.3-3.7-1.3-5 0z"/><path d="M33 62.5c-1.9-.5-3.8.6-4.3 2.5l-3.4 12.6c-.5 1.9.6 3.8 2.5 4.3.3.1.6.1.9.1 1.5 0 3-1 3.4-2.6l3.4-12.6c.5-1.8-.7-3.8-2.5-4.3z"/><path d="M46.3 54.8c-1.9-.5-3.8.6-4.3 2.5l-3.4 12.6c-.5 1.9.6 3.8 2.5 4.3.3.1.6.1.9.1 1.5 0 3-1 3.4-2.6l3.4-12.6c.5-1.8-.6-3.8-2.5-4.3z"/><path d="M74.4 32.5c0-8.6-7-15.6-15.6-15.6-3.1 0-6.2.9-8.7 2.7-1.4.9-1.7 2.8-.8 4.2.9 1.4 2.8 1.7 4.2.8 1.6-1.1 3.5-1.6 5.4-1.6 5.3 0 9.6 4.3 9.6 9.6 0 1.6-.4 3.1-1.1 4.4-.8 1.5-.2 3.3 1.3 4 .4.2.9.3 1.4.3 1.1 0 2.1-.6 2.7-1.6 1-2.2 1.6-4.7 1.6-7.2z"/><path d="M58.8 12.2c1.7 0 3-1.3 3-3V3.5c0-1.7-1.3-3-3-3s-3 1.3-3 3v5.7c0 1.7 1.3 3 3 3z"/><path d="M87.8 29.5h-5.7c-1.7 0-3 1.3-3 3s1.3 3 3 3h5.7c1.7 0 3-1.3 3-3s-1.3-3-3-3z"/><path d="M75.3 19c.8 0 1.5-.3 2.1-.9l4-4c1.2-1.2 1.2-3.1 0-4.2-1.2-1.2-3.1-1.2-4.2 0l-4 4c-1.2 1.2-1.2 3.1 0 4.2.5.6 1.3.9 2.1.9z"/><path d="M77.4 46.9c-1.2-1.2-3.1-1.2-4.2 0-1.2 1.2-1.2 3.1 0 4.2l4 4c.6.6 1.4.9 2.1.9.8 0 1.5-.3 2.1-.9 1.2-1.2 1.2-3.1 0-4.2l-4-4z"/><path d="M40.1 18.2c.6.6 1.4.9 2.1.9.8 0 1.5-.3 2.1-.9 1.2-1.2 1.2-3.1 0-4.2l-4-4c-1.2-1.2-3.1-1.2-4.2 0-1.2 1.2-1.2 3.1 0 4.2l4 4z"/><path d="M51.5 38.1h-1.1c-.4-1.6-1-3.4-2-5.3-3.3-6.2-9.2-9.6-16.5-9.6-7.4 0-13.3 3.4-16.5 9.6-1 2-1.6 4-2 5.6C5.5 39.8.2 45.9.2 54.1c0 5.2 2.5 10 6.6 12.9 1.8 1.3 4.3.9 5.6-.9 1.3-1.8.9-4.3-.9-5.6-2-1.4-3.2-3.8-3.2-6.4 0-4.8 3.5-8 8.7-8 2.2 0 3.9-1.7 4-3.9 0-1.1.6-11.1 10.9-11.1 4.4 0 7.5 1.7 9.4 5.1 1.6 2.9 1.8 6 1.8 6 .1 2.1 1.9 3.8 4 3.8h4.5c5.2 0 8.7 3.2 8.7 8 0 4-2.6 7-6.5 7.8-2.2.4-3.6 2.5-3.2 4.7.4 1.9 2 3.2 3.9 3.2.3 0 .5 0 .8-.1 7.7-1.5 13-7.9 13-15.7-.1-9.1-7.1-15.8-16.8-15.8z"/></g></svg>