<svg version="1.1" id="Layer_1" xmlns="http://www.w3.org/2000/svg" x="0" y="0" viewBox="0 0 91 91" xml:space="preserve" width="91" height="91"><title>cloud fog</title><g class="nc-icon-wrapper" fill="#eceff4"><path d="M11 49c2.2 0 4-1.8 4-4 0-4.8 3.5-8 8.7-8 2.2 0 3.9-1.7 4-3.9.1-1.1.7-11.1 11-11.1 4.4 0 7.5 1.7 9.4 5.1 1.6 2.9 1.8 6 1.8 6 .1 2.1 1.9 3.8 4 3.8h4.5c5.2 0 8.7 3.2 8.7 8 0 2.2 1.8 4 4 4s4-1.8 4-4c0-9.3-7-16-16.7-16h-1.1c-.4-1.6-1-3.4-2-5.3C52 17.4 46.1 14 38.8 14c-7.4 0-13.3 3.4-16.5 9.6-1 2-1.6 4-2 5.6C12.4 30.7 7 36.9 7 45c0 2.2 1.8 4 4 4z"/><path d="M62.6 58.6c0-1.9-1.6-3.5-3.5-3.5H10.7c-1.9 0-3.5 1.6-3.5 3.5s1.6 3.5 3.5 3.5h48.5c1.9 0 3.4-1.6 3.4-3.5z"/><path d="M80.5 70H25.3c-1.9 0-3.5 1.6-3.5 3.5s1.6 3.5 3.5 3.5h55.2c1.9 0 3.5-1.6 3.5-3.5 0-2-1.6-3.5-3.5-3.5z"/><path d="M71.5 54.6h-.2c-2.2 0-4 1.8-4 4s1.8 4 4 4h.2c2.2 0 4-1.8 4-4s-1.8-4-4-4z"/></g></svg>