<svg version="1.1" id="Layer_1" xmlns="http://www.w3.org/2000/svg" x="0" y="0" viewBox="0 0 91 91" xml:space="preserve" width="91" height="91"><title>cloud rain sun 2</title><g class="nc-icon-wrapper" fill="#eceff4"><path d="M58.3 32.6h-1.1c-.4-1.6-1-3.4-2-5.3-3.3-6.2-9.2-9.6-16.5-9.6-7.4 0-13.3 3.4-16.5 9.6-1 2-1.6 4-2 5.6C12.4 34.3 7 40.5 7 48.6c0 5.2 2.5 10 6.6 12.9 1.8 1.3 4.3.9 5.6-.9 1.3-1.8.9-4.3-.9-5.6-2-1.4-3.2-3.8-3.2-6.4 0-4.8 3.5-8 8.7-8 2.2 0 3.9-1.7 4-3.9 0-1.1.6-11.1 10.9-11.1 4.4 0 7.5 1.7 9.4 5.1 1.6 2.9 1.8 6 1.8 6 .1 2.1 1.9 3.8 4 3.8h4.5c5.2 0 8.7 3.2 8.7 8 0 4-2.6 7-6.5 7.8-2.2.4-3.6 2.5-3.2 4.7.4 1.9 2 3.2 3.9 3.2.3 0 .5 0 .8-.1 7.7-1.5 13-7.9 13-15.7-.1-9.1-7.1-15.8-16.8-15.8z"/><path d="M66.4 6.8c-5.4 0-10.5 2.4-14 6.6-1.1 1.3-.9 3.2.4 4.2 1.3 1.1 3.2.9 4.2-.4 2.3-2.8 5.7-4.4 9.4-4.4 6.7 0 12.2 5.5 12.2 12.2 0 2.9-1 5.7-2.9 7.9-1.1 1.3-.9 3.2.4 4.2.6.5 1.3.7 1.9.7.9 0 1.7-.4 2.3-1.1 2.8-3.3 4.3-7.5 4.3-11.8 0-10-8.2-18.1-18.2-18.1z"/><path d="M30.2 49.4c-1.9-.5-3.8.6-4.3 2.5l-5.6 20.7c-.5 1.9.6 3.8 2.5 4.3.3.1.6.1.9.1 1.5 0 3-1 3.4-2.6l5.6-20.7c.5-1.9-.6-3.8-2.5-4.3z"/><path d="M39.8 57.5c-1.9-.5-3.8.6-4.3 2.5l-5.6 20.7c-.5 1.9.6 3.8 2.5 4.3h.9c1.5 0 3-1 3.4-2.6l5.6-20.7c.5-1.8-.6-3.7-2.5-4.2z"/><path d="M53.9 49.4c-1.9-.5-3.8.6-4.3 2.5L44 72.5c-.5 1.9.6 3.8 2.5 4.3.3.1.6.1.9.1 1.5 0 3-1 3.4-2.6l5.6-20.7c.5-1.8-.6-3.7-2.5-4.2z"/></g></svg>