<svg version="1.1" id="Layer_1" xmlns="http://www.w3.org/2000/svg" x="0" y="0" viewBox="0 0 91 91" xml:space="preserve" width="91" height="91"><title>cloud drizzle sun 2</title><g class="nc-icon-wrapper" fill="#eceff4"><path d="M66.1 6.7c-5.4 0-10.5 2.4-14 6.6-1.1 1.3-.9 3.2.4 4.2 1.3 1.1 3.2.9 4.2-.4 2.3-2.8 5.7-4.4 9.4-4.4 6.7 0 12.2 5.5 12.2 12.2 0 2.9-1 5.7-2.9 7.9-1.1 1.3-.9 3.2.4 4.2.6.5 1.3.7 1.9.7.9 0 1.7-.4 2.3-1.1 2.8-3.3 4.3-7.5 4.3-11.8 0-9.9-8.2-18.1-18.2-18.1z"/><path d="M58 32.5h-1.1c-.4-1.6-1-3.4-2-5.3-3.3-6.2-9.2-9.6-16.5-9.6-7.4 0-13.3 3.4-16.5 9.6-1 2-1.6 4-2 5.6-7.8 1.4-13.2 7.6-13.2 15.7 0 5.2 2.5 10 6.6 12.9 1.8 1.3 4.3.9 5.6-.9 1.3-1.8.9-4.3-.9-5.6-2-1.4-3.2-3.8-3.2-6.4 0-4.8 3.5-8 8.7-8 2.2 0 3.9-1.7 4-3.9 0-1.1.6-11.1 10.9-11.1 4.4 0 7.5 1.7 9.4 5.1 1.6 2.9 1.8 6 1.8 6 .1 2.1 1.9 3.8 4 3.8H58c5.2 0 8.7 3.2 8.7 8 0 4-2.6 7-6.5 7.8-2.2.5-3.6 2.6-3.2 4.8.4 1.9 2 3.2 3.9 3.2.3 0 .5 0 .8-.1 7.7-1.5 13-7.9 13-15.7 0-9.1-7-15.9-16.7-15.9z"/><path d="M26.9 59.8c.3.1.6.1.9.1 1.5 0 3-1 3.4-2.6l1.2-4.4c.5-1.9-.6-3.8-2.5-4.3s-3.8.6-4.3 2.5l-1.2 4.4c-.5 1.9.6 3.8 2.5 4.3z"/><path d="M53.6 48.6c-1.9-.5-3.8.6-4.3 2.5l-1.2 4.4c-.5 1.9.6 3.8 2.5 4.3.3.1.6.1.9.1 1.5 0 3-1 3.4-2.6l1.2-4.4c.5-1.9-.6-3.8-2.5-4.3z"/><path d="M39.6 56.7c-1.9-.5-3.8.6-4.3 2.5l-1.2 4.4c-.5 1.9.6 3.8 2.5 4.3.3.1.6.1.9.1 1.5 0 3-1 3.4-2.6L42 61c.5-1.8-.6-3.8-2.4-4.3z"/><path d="M25.5 64.9c-1.9-.5-3.8.6-4.3 2.5L20 71.8c-.5 1.9.6 3.8 2.5 4.3.3.1.6.1.9.1 1.5 0 3-1 3.4-2.6l1.2-4.4c.5-1.9-.6-3.8-2.5-4.3z"/><path d="M49.2 64.9c-1.9-.5-3.8.6-4.3 2.5l-1.2 4.4c-.5 1.9.6 3.8 2.5 4.3.3.1.6.1.9.1 1.5 0 3-1 3.4-2.6l1.2-4.4c.5-1.9-.6-3.8-2.5-4.3z"/><path d="M35.2 73c-1.9-.5-3.8.6-4.3 2.5l-1.2 4.4c-.5 1.9.6 3.8 2.5 4.3.3.1.6.1.9.1 1.5 0 3-1 3.4-2.6l1.2-4.4c.5-1.9-.6-3.8-2.5-4.3z"/></g></svg>