<svg version="1.1" id="Layer_1" xmlns="http://www.w3.org/2000/svg" x="0" y="0" viewBox="0 0 91 91" xml:space="preserve" width="91" height="91"><title>cloud fog 2</title><g class="nc-icon-wrapper" fill="#eceff4"><path d="M68.7 63.2H23.8c-1.2 0-2.2 1-2.2 2.2s1 2.2 2.2 2.2h44.9c1.2 0 2.2-1 2.2-2.2s-.9-2.2-2.2-2.2z"/><path d="M75.5 55.2h-60c-1.2 0-2.2 1-2.2 2.2s1 2.2 2.2 2.2h59.9c1.2 0 2.2-1 2.2-2.2s-.9-2.2-2.1-2.2z"/><path d="M18.4 51.8h54.2c1.2 0 2.2-1 2.2-2.2s-1-2.2-2.2-2.2H18.4c-1.2 0-2.2 1-2.2 2.2s1 2.2 2.2 2.2z"/><path d="M28.2 43.8h34.6c1.2 0 2.2-1 2.2-2.2s-1-2.2-2.2-2.2H28.2c-1.2 0-2.2 1-2.2 2.2s.9 2.2 2.2 2.2z"/><path d="M30.8 35.8h24.9c1.2 0 2.2-1 2.2-2.2s-1-2.2-2.2-2.2H30.8c-1.2 0-2.2 1-2.2 2.2s1 2.2 2.2 2.2z"/><path d="M38.4 27.8H48c1.2 0 2.2-1 2.2-2.2s-1-2.2-2.2-2.2h-9.6c-1.2 0-2.2 1-2.2 2.2s1 2.2 2.2 2.2z"/></g></svg>