<svg version="1.1" id="Layer_1" xmlns="http://www.w3.org/2000/svg" x="0" y="0" viewBox="0 0 91 91" xml:space="preserve" width="91" height="91"><title>cloud wind sun</title><g class="nc-icon-wrapper" fill="#eceff4"><path d="M75.2 36.9c1-1.9 1.5-4 1.5-6.1 0-7.3-6-13.3-13.3-13.3-2.7 0-5.2.8-7.4 2.3-1.3.9-1.6 2.6-.7 3.8.9 1.3 2.6 1.6 3.8.7 1.3-.9 2.8-1.3 4.4-1.3 4.3 0 7.8 3.5 7.8 7.8 0 1.3-.3 2.5-.9 3.6-.7 1.3-.2 3 1.2 3.7.4.2.8.3 1.3.3.8 0 1.8-.5 2.3-1.5z"/><path d="M63.4 14.1c1.5 0 2.8-1.2 2.8-2.8V6.6c0-1.5-1.2-2.8-2.8-2.8-1.5 0-2.8 1.2-2.8 2.8v4.8c0 1.5 1.3 2.7 2.8 2.7z"/><path d="M87.6 28.1h-4.8c-1.5 0-2.8 1.2-2.8 2.8 0 1.5 1.2 2.8 2.8 2.8h4.8c1.5 0 2.8-1.2 2.8-2.8 0-1.6-1.2-2.8-2.8-2.8z"/><path d="M77.2 19.8c.7 0 1.4-.3 1.9-.8l3.4-3.4c1.1-1.1 1.1-2.8 0-3.9s-2.8-1.1-3.9 0l-3.4 3.4c-1.1 1.1-1.1 2.8 0 3.9.6.5 1.3.8 2 .8z"/><path d="M79.1 42.6c-1.1-1.1-2.8-1.1-3.9 0s-1.1 2.8 0 3.9l3.4 3.4c.5.5 1.2.8 1.9.8s1.4-.3 1.9-.8c1.1-1.1 1.1-2.8 0-3.9l-3.3-3.4z"/><path d="M47.7 19c.5.5 1.2.8 1.9.8s1.4-.3 1.9-.8c1.1-1.1 1.1-2.8 0-3.9l-3.4-3.4c-1.1-1.1-2.8-1.1-3.9 0s-1.1 2.8 0 3.9l3.5 3.4z"/><path d="M40.5 42.3c-2.7 0-5.4 1.2-7.3 3.2-1.3 1.4-1.2 3.6.2 4.9 1.4 1.3 3.6 1.2 4.9-.2.6-.6 1.3-.9 2.2-.9 1.6 0 3 1.3 3 3 0 1.6-1.3 3-3 3H4.1c-1.9 0-3.5 1.6-3.5 3.5s1.6 3.5 3.5 3.5h36.3c5.5 0 10-4.5 10-10s-4.4-10-9.9-10z"/><path d="M27.8 67.2H4.1c-1.9 0-3.5 1.6-3.5 3.5s1.6 3.5 3.5 3.5h23.7c1.6 0 3 1.3 3 3 0 1.6-1.3 3-3 3-.8 0-1.6-.3-2.2-.9-1.3-1.4-3.5-1.5-4.9-.2-1.4 1.3-1.5 3.5-.2 4.9 1.9 2 4.5 3.2 7.3 3.2 5.5 0 10-4.5 10-10s-4.5-10-10-10z"/><path d="M57.4 35.2h-.8c-.3-1.3-.8-2.8-1.7-4.4-2.8-5.2-7.7-8.1-13.9-8.1s-11.2 2.9-13.9 8.1c-.8 1.6-1.4 3.3-1.7 4.6-6.2 1.2-10.5 5.8-11 12.2-.1 1.9 1.3 3.6 3.2 3.7 1.9.1 3.6-1.3 3.7-3.2.3-3.6 3-5.9 7.1-5.9 1.9 0 3.4-1.5 3.5-3.4 0 0 .1-2.4 1.3-4.7 1.5-2.9 4-4.3 7.7-4.3 3.6 0 6.1 1.4 7.7 4.2 1.3 2.4 1.5 4.9 1.5 4.9.1 1.9 1.6 3.3 3.5 3.3h3.8c4.3 0 7.1 2.6 7.1 6.5 0 3.1-2.2 6.5-7.1 6.5-1.9 0-3.5 1.6-3.5 3.5s1.6 3.5 3.5 3.5c8 0 14.1-5.8 14.1-13.5 0-7.8-5.9-13.5-14.1-13.5z"/></g></svg>