<svg version="1.1" id="Layer_1" xmlns="http://www.w3.org/2000/svg" x="0" y="0" viewBox="0 0 91 91" xml:space="preserve" width="91" height="91"><title>cloud rain 2 moon</title><g class="nc-icon-wrapper" fill="#eceff4"><path d="M88.5 32.8c-.6-.9-1.7-1.4-2.7-1.3-4.8.4-9.5-2.1-11.9-6.3-2.4-4.2-2.2-9.5.5-13.4.6-.9.7-2.1.2-3-.5-1-1.5-1.6-2.6-1.7-3.7-.2-7.4.8-10.6 2.6-5.3 3.1-8.9 8.4-9.7 14.5-.2 1.6.9 3.1 2.6 3.4 1.6.2 3.2-.9 3.4-2.6.6-4.3 3-7.9 6.7-10.1.8-.5 1.6-.8 2.5-1.1-1.4 4.8-.8 10 1.8 14.4s6.8 7.5 11.6 8.7c-.7.6-1.4 1.1-2.2 1.6-.8.5-1.7.8-2.5 1.1-1.6.5-2.4 2.2-1.9 3.8.4 1.3 1.6 2.1 2.8 2.1.3 0 .6 0 .9-.2 1.3-.4 2.5-1 3.6-1.6 3.2-1.9 5.8-4.6 7.6-7.9.6-.9.5-2.1-.1-3z"/><path d="M34.9 68.1c-.8 0-1.5.4-2 1-.9 1.2-4 5.5-4 8.5 0 3.9 3 6.3 6 6.3s6-2.4 6-6.3c0-3.1-3-7.3-4-8.5-.5-.6-1.2-1-2-1z"/><path d="M26.9 56.6c-.8-1-2.4-1-3.2 0-.7.9-3 4.2-3 6.5 0 3 2.3 4.8 4.6 4.8s4.6-1.8 4.6-4.8c0-2.3-2.3-5.5-3-6.5z"/><path d="M41 50.8c-.5 0-.9.2-1.2.6-.6.8-2.6 3.6-2.6 5.6 0 2.5 1.9 4 3.8 4s3.8-1.5 3.8-4c0-1.3-2.2-6.2-3.8-6.2z"/><path d="M53.3 36h-1.1c-.4-1.6-1-3.4-2-5.3C46.9 24.4 41 21 33.6 21c-7.4 0-13.3 3.4-16.5 9.6-1 2-1.6 4-2 5.6C7.3 37.7 2 43.9 2 52c0 5.8 2.9 10.9 7.9 13.8 1.9 1.1 4.4.4 5.5-1.5 1.1-1.9.4-4.4-1.5-5.5-2.5-1.4-3.9-4-3.9-6.8 0-4.8 3.5-8 8.7-8 2.2 0 3.9-1.7 4-3.9 0-1.1.6-11.1 10.9-11.1 4.4 0 7.5 1.7 9.4 5.1 1.6 2.9 1.8 6 1.8 6 .1 2.1 1.9 3.8 4 3.8h4.5c5.2 0 8.7 3.2 8.7 8 0 3.9-2.7 8-8.7 8H51c-2.2 0-4 1.8-4 4s1.8 4 4 4h2.2C62.8 68 70 61.1 70 52c0-9.3-7.1-16-16.7-16z"/></g></svg>