<svg version="1.1" id="Layer_1" xmlns="http://www.w3.org/2000/svg" x="0" y="0" viewBox="0 0 91 91" xml:space="preserve" width="91" height="91"><title>cloud wind 2 moon</title><g class="nc-icon-wrapper" fill="#eceff4"><path d="M57.8 41.7H57c-.3-1.3-.8-2.8-1.7-4.4-2.8-5.2-7.7-8.1-13.9-8.1-7.7 0-13.3 4.4-15.3 12-.5 1.9.6 3.8 2.5 4.3s3.8-.6 4.3-2.5c1.8-6.8 6.9-6.8 8.6-6.8 8.2 0 9.1 7.6 9.1 9.1.1 1.9 1.6 3.3 3.5 3.3h3.8c4.3 0 7.1 2.6 7.1 6.5 0 3.1-2.2 6.5-7.1 6.5H4.1c-1.9 0-3.5 1.6-3.5 3.5s1.6 3.5 3.5 3.5h53.6c8 0 14.1-5.8 14.1-13.5s-5.9-13.4-14-13.4z"/><path d="M12.6 56.7h28c1.9 0 3.5-1.6 3.5-3.5s-1.6-3.5-3.5-3.5h-28c-1.9 0-3.5 1.6-3.5 3.5s1.6 3.5 3.5 3.5z"/><path d="M52.6 73.7H17.5c-1.9 0-3.5 1.6-3.5 3.5s1.6 3.5 3.5 3.5h35.1c1.9 0 3.5-1.6 3.5-3.5s-1.6-3.5-3.5-3.5z"/><path d="M89.9 37.9c-.6-.8-1.5-1.3-2.5-1.2-5.4.4-10.6-2.3-13.3-7-2.7-4.7-2.5-10.6.6-15 .6-.8.6-1.9.2-2.8-.4-.9-1.3-1.5-2.3-1.5-3.9-.2-7.8.8-11.2 2.8-4.7 2.7-8.1 7.1-9.6 12.4-.4 1.5.4 3 1.9 3.4 1.5.4 3-.4 3.4-1.9 1.1-3.9 3.6-7.1 7-9.1 1.2-.7 2.4-1.2 3.7-1.5-1.8 5.3-1.3 11.2 1.6 16.1 2.8 4.9 7.7 8.3 13.1 9.4-.9.9-2 1.7-3.1 2.4-1.2.7-2.4 1.2-3.7 1.5-1.5.4-2.3 1.9-2 3.4.3 1.2 1.4 2 2.7 2 .2 0 .5 0 .7-.1 1.8-.5 3.5-1.2 5.1-2.1 3.4-2 6.2-4.8 8-8.3.3-1 .3-2.1-.3-2.9z"/></g></svg>