<svg version="1.1" id="Layer_1" xmlns="http://www.w3.org/2000/svg" x="0" y="0" viewBox="0 0 91 91" xml:space="preserve" width="91" height="91"><title>cloud drizzle lightning</title><g class="nc-icon-wrapper" fill="#eceff4"><path d="M62.8 29.5h-1.1c-.4-1.6-1-3.4-2-5.3-3.3-6.2-9.2-9.6-16.5-9.6-7.4 0-13.3 3.4-16.5 9.6-1 2-1.6 4-2 5.6-7.8 1.4-13.2 7.6-13.2 15.7 0 5.2 2.5 10 6.6 12.9 1.8 1.3 4.3.9 5.6-.9 1.3-1.8.9-4.3-.9-5.6-2-1.4-3.2-3.8-3.2-6.4 0-4.8 3.5-8 8.7-8 2.2 0 3.9-1.7 4-3.9 0-1.1.6-11.1 10.9-11.1 4.4 0 7.5 1.7 9.4 5.1 1.6 2.9 1.8 6 1.8 6 .1 2.1 1.9 3.8 4 3.8h4.5c5.2 0 8.7 3.2 8.7 8 0 4-2.6 7-6.5 7.8-2.2.4-3.6 2.5-3.2 4.7.4 1.9 2 3.2 3.9 3.2.3 0 .5 0 .8-.1 7.7-1.5 13-7.9 13-15.7-.1-9-7.1-15.8-16.8-15.8z"/><path d="M34.7 45.6c-1.9-.5-3.8.6-4.3 2.5l-1.2 4.4c-.5 1.9.6 3.8 2.5 4.3.3.1.6.1.9.1 1.5 0 3-1 3.4-2.6l1.2-4.4c.5-1.8-.6-3.8-2.5-4.3z"/><path d="M30.4 61.9c-1.9-.5-3.8.6-4.3 2.5l-1.2 4.4c-.5 1.9.6 3.8 2.5 4.3.3.1.6.1.9.1 1.5 0 3-1 3.4-2.6l1.2-4.4c.4-1.9-.7-3.8-2.5-4.3z"/><path d="M57.1 54.6h-4.4l5.5-7.7c.3-.5.4-1.1.1-1.6-.3-.5-.8-.8-1.3-.8H46c-.6 0-1.2.4-1.4 1l-6.1 15.8c-.2.5-.1 1 .2 1.4.3.4.7.6 1.2.6h3.2l-4.2 11c-.3.7 0 1.4.6 1.8.2.1.5.2.8.2.4 0 .8-.2 1.1-.5L58 57c.4-.4.5-1.1.2-1.6 0-.4-.5-.8-1.1-.8z"/></g></svg>