<svg version="1.1" id="Layer_1" xmlns="http://www.w3.org/2000/svg" x="0" y="0" viewBox="0 0 91 91" xml:space="preserve" width="91" height="91"><title>compass north</title><g class="nc-icon-wrapper" fill="#eceff4"><path d="M45.5 1.9c-24 0-43.6 19.6-43.6 43.6s19.6 43.6 43.6 43.6 43.6-19.6 43.6-43.6S69.5 1.9 45.5 1.9zm0 79.2c-19.6 0-35.6-16-35.6-35.6s16-35.6 35.6-35.6 35.6 16 35.6 35.6-16 35.6-35.6 35.6z"/><path d="M48.3 23.5c-.4-1.2-1.6-1.9-2.8-1.9-1.2 0-2.4.8-2.8 1.9L28.3 61.4c-.5 1.3-.1 2.7 1 3.5.5.4 1.1.6 1.8.6s1.3-.2 1.9-.7l12.5-10.2L58 64.8c1.1.9 2.6.9 3.7.1s1.5-2.2 1-3.5L48.3 23.5zm-.9 24.9c-1.1-.9-2.7-.9-3.8 0L37.9 53l7.6-20 7.6 20-5.7-4.6z"/></g></svg>