<svg version="1.1" id="Layer_1" xmlns="http://www.w3.org/2000/svg" x="0" y="0" viewBox="0 0 91 91" xml:space="preserve" width="91" height="91"><title>degrees fahrenheit</title><g class="nc-icon-wrapper" fill="#eceff4"><path d="M85.4 14.3c-.3-1.1-1.8-4.7-8.8-4.7H41.7c-2.2 0-4 1.8-4 4v63.7c0 2.2 1.8 4 4 4s4-1.8 4-4V47.9h20.8c2.2 0 4-1.8 4-4s-1.8-4-4-4H45.6V17.7h30.9c1 0 1.5.1 1.8.2.8 1 1.9 1.5 3.2 1.5.4 0 .7 0 1.1-.1 2.1-.6 3.3-2.8 2.8-5z"/><path d="M17.9 9.7c-7.8 0-12.4 5.2-12.4 13.9s4.6 13.9 12.4 13.9c7.8 0 12.4-5.2 12.4-13.9S25.6 9.7 17.9 9.7zm0 19.9c-1.9 0-4.4 0-4.4-5.9s2.5-5.9 4.4-5.9c1.9 0 4.4 0 4.4 5.9s-2.6 5.9-4.4 5.9z"/></g></svg>