<svg version="1.1" id="Layer_1" xmlns="http://www.w3.org/2000/svg" x="0" y="0" viewBox="0 0 91 91" xml:space="preserve" width="91" height="91"><title>drizzle</title><g class="nc-icon-wrapper" fill="#eceff4"><path d="M31.7 15.1c-2.1-.6-4.3.7-4.9 2.8L24.6 26c-.6 2.1.7 4.3 2.8 4.9.3.1.7.1 1 .1 1.8 0 3.4-1.2 3.9-3l2.2-8.1c.6-2.1-.7-4.3-2.8-4.8z"/><path d="M71.7 15.1c-2.1-.6-4.3.7-4.9 2.8L64.6 26c-.6 2.1.7 4.3 2.8 4.9.3.1.7.1 1 .1 1.8 0 3.4-1.2 3.9-3l2.2-8.1c.6-2.1-.7-4.3-2.8-4.8z"/><path d="M47.6 30.1c-2.1-.6-4.3.7-4.9 2.8L40.5 41c-.6 2.1.7 4.3 2.8 4.9.3.1.7.1 1 .1 1.8 0 3.4-1.2 3.9-3l2.2-8.1c.6-2.1-.6-4.3-2.8-4.8z"/><path d="M23.6 45.1c-2.1-.6-4.3.7-4.9 2.8L16.5 56c-.6 2.1.7 4.3 2.8 4.9.3.1.7.1 1 .1 1.8 0 3.4-1.2 3.9-3l2.2-8.1c.6-2.1-.7-4.3-2.8-4.8z"/><path d="M63.6 45.1c-2.1-.6-4.3.7-4.9 2.8L56.5 56c-.6 2.1.7 4.3 2.8 4.9.3.1.7.1 1 .1 1.8 0 3.4-1.2 3.9-3l2.2-8.1c.6-2.1-.7-4.3-2.8-4.8z"/><path d="M39.6 60.1c-2.1-.6-4.3.7-4.9 2.8L32.5 71c-.6 2.1.7 4.3 2.8 4.9.3.1.7.1 1 .1 1.8 0 3.4-1.2 3.9-3l2.2-8.1c.6-2.1-.7-4.3-2.8-4.8z"/></g></svg>