<svg version="1.1" id="Layer_1" xmlns="http://www.w3.org/2000/svg" x="0" y="0" viewBox="0 0 91 91" xml:space="preserve" width="91" height="91"><title>fog</title><g class="nc-icon-wrapper" fill="#eceff4"><path d="M18.7 32.1h47.8c2.2 0 4-1.8 4-4s-1.8-4-4-4H18.7c-2.2 0-4 1.8-4 4s1.8 4 4 4z"/><path d="M68 45.8c0-2.2-1.8-4-4-4H4.1c-2.2 0-4 1.8-4 4s1.8 4 4 4H64c2.2 0 4-1.8 4-4z"/><path d="M86.9 59.4H27c-2.2 0-4 1.8-4 4s1.8 4 4 4h59.9c2.2 0 4-1.8 4-4s-1.8-4-4-4z"/><path d="M78.4 32.6h.2c2.5 0 4.5-2 4.5-4.5s-2-4.5-4.5-4.5h-.2c-2.5 0-4.5 2-4.5 4.5s2 4.5 4.5 4.5z"/></g></svg>