<svg version="1.1" id="Layer_1" xmlns="http://www.w3.org/2000/svg" x="0" y="0" viewBox="0 0 91 91" xml:space="preserve" width="91" height="91"><title>lightning</title><g class="nc-icon-wrapper" fill="#eceff4"><path d="M64.3 36.1c-.5-1.1-1.6-1.8-2.7-1.8h-7.9l10.1-14.1c.7-.9.7-2.1.2-3.1-.5-1-1.5-1.6-2.7-1.6H40.8c-1.2 0-2.4.8-2.8 1.9L26.7 47.1c-.4.9-.2 2 .3 2.8.6.8 1.5 1.3 2.5 1.3h5.8l-7.7 20.3c-.5 1.4 0 2.9 1.2 3.6.5.3 1 .4 1.6.4.8 0 1.7-.3 2.2-1l31.2-35.2c.8-.9 1-2.1.5-3.2zM39 58.3l3.4-9c.4-.9.2-2-.3-2.8-.6-.8-1.5-1.3-2.5-1.3h-5.8l9.1-23.7h12.5L45.3 35.6c-.7.9-.7 2.1-.2 3.1.5 1 1.5 1.6 2.7 1.6h7.1L39 58.3z"/></g></svg>