<svg version="1.1" id="Layer_1" xmlns="http://www.w3.org/2000/svg" x="0" y="0" viewBox="0 0 91 91" xml:space="preserve" width="91" height="91"><title>moon 75</title><g class="nc-icon-wrapper" fill="#eceff4"><path d="M45.7 76.7c-11.1 0-21.5-6-27.1-15.6-8.6-14.9-3.5-34 11.4-42.6 4.7-2.7 10.1-4.2 15.6-4.2 3.6 0 7.2.6 10.6 1.9 1.9.7 3 2.7 2.5 4.7-1.3 5.4-.5 11 2.3 15.8 2.8 4.8 7.2 8.3 12.5 9.9 2 .6 3.2 2.5 2.8 4.5-1.6 9.1-7.1 16.9-15.1 21.5-4.6 2.7-10 4.1-15.5 4.1zm0-54.4c-4 0-8 1.1-11.6 3.1C23 31.8 19.2 46 25.6 57.1c4.1 7.2 11.8 11.6 20.1 11.6 4 0 8.1-1.1 11.6-3.1 5-2.9 8.6-7.4 10.4-12.8-5.7-2.5-10.4-6.7-13.6-12.2-3.1-5.5-4.4-11.7-3.8-17.9-1.5-.3-3-.4-4.6-.4z"/></g></svg>