<svg version="1.1" id="Layer_1" xmlns="http://www.w3.org/2000/svg" x="0" y="0" viewBox="0 0 91 91" xml:space="preserve" width="91" height="91"><title>raindrop</title><g class="nc-icon-wrapper" fill="#eceff4"><path d="M48.7 17.9c-.8-1-1.9-1.6-3.2-1.6-1.3 0-2.4.6-3.2 1.6-1.7 2.3-16.9 22.7-16.9 35.1 0 13.6 10.2 21.7 20.1 21.7 9.9 0 20.1-8.1 20.1-21.7 0-12.4-15.2-32.8-16.9-35.1zm-3.2 48.8c-5.9 0-12.1-4.8-12.1-13.7 0-6.6 7.1-18.5 12.1-25.9 5.6 8.2 12.1 19.7 12.1 25.9 0 8.9-6.2 13.7-12.1 13.7z"/></g></svg>