<svg version="1.1" id="Layer_1" xmlns="http://www.w3.org/2000/svg" x="0" y="0" viewBox="0 0 91 91" xml:space="preserve" width="91" height="91"><title>sun lower</title><g class="nc-icon-wrapper" fill="#eceff4"><path d="M45.5 32.4c2.2 0 4-1.8 4-4v-8.1c0-2.2-1.8-4-4-4s-4 1.8-4 4v8.1c0 2.3 1.8 4 4 4z"/><path d="M69 42c1 0 2-.4 2.8-1.2l5.8-5.8c1.6-1.6 1.6-4.1 0-5.7-1.6-1.6-4.1-1.6-5.7 0l-5.8 5.8c-1.6 1.6-1.6 4.1 0 5.7.9.8 1.9 1.2 2.9 1.2z"/><path d="M19.2 40.8c.7.8 1.8 1.2 2.8 1.2 1 0 2-.4 2.8-1.2 1.6-1.6 1.6-4.1 0-5.7L19 29.3c-1.6-1.6-4.1-1.6-5.7 0-1.6 1.6-1.6 4.1 0 5.7l5.9 5.8z"/><path d="M86.9 66.7H4.1c-2.2 0-4 1.8-4 4s1.8 4 4 4h82.8c2.2 0 4-1.8 4-4s-1.8-4-4-4z"/><path d="M27.1 60.8c2.1.6 4.3-.7 4.9-2.9 1.6-6.2 7.2-10.5 13.6-10.5s12 4.3 13.6 10.5c.5 1.8 2.1 3 3.9 3 .3 0 .7 0 1-.1 2.1-.6 3.4-2.7 2.9-4.9-2.5-9.7-11.3-16.5-21.3-16.5s-18.8 6.8-21.3 16.5c-.8 2.2.5 4.4 2.7 4.9z"/></g></svg>