<svg version="1.1" id="Layer_1" xmlns="http://www.w3.org/2000/svg" x="0" y="0" viewBox="0 0 91 91" xml:space="preserve" width="91" height="91"><title>tornado</title><g class="nc-icon-wrapper" fill="#eceff4"><path d="M17.8 14.1H64c2.2 0 4-1.8 4-4s-1.8-4-4-4H17.8c-2.2 0-4 1.8-4 4s1.8 4 4 4z"/><path d="M64.3 27.8c0-2.2-1.8-4-4-4h-46c-2.2 0-4 1.8-4 4s1.8 4 4 4h46c2.2 0 4-1.8 4-4z"/><path d="M72.9 41.4H32.1c-2.2 0-4 1.8-4 4s1.8 4 4 4h40.8c2.2 0 4-1.8 4-4s-1.8-4-4-4z"/><path d="M76.1 5.6H76c-2.5 0-4.5 2-4.5 4.5s2 4.5 4.5 4.5h.2c2.5 0 4.5-2 4.5-4.5-.1-2.5-2.1-4.5-4.6-4.5z"/><path d="M62.8 59.4H39.2c-2.2 0-4 1.8-4 4s1.8 4 4 4h23.6c2.2 0 4-1.8 4-4s-1.8-4-4-4z"/><path d="M46.5 77.4H35.3c-2.2 0-4 1.8-4 4s1.8 4 4 4h11.2c2.2 0 4-1.8 4-4s-1.8-4-4-4z"/></g></svg>