<svg version="1.1" id="Layer_1" xmlns="http://www.w3.org/2000/svg" x="0" y="0" viewBox="0 0 91 91" xml:space="preserve" width="91" height="91"><title>umbrella drizzle</title><g class="nc-icon-wrapper" fill="#eceff4"><path d="M52.8 90.8C46.8 90.8 42 86 42 80V60.7c0-1.9 1.6-3.5 3.5-3.5s3.5 1.6 3.5 3.5v19.2c0 2.1 1.7 3.8 3.8 3.8 2.1 0 3.8-1.7 3.8-3.8 0-1.9 1.6-3.5 3.5-3.5s3.5 1.6 3.5 3.5c0 6-4.8 10.9-10.8 10.9z"/><path d="M35 11.8c-.3 0-.6 0-.9-.1-1.9-.5-3-2.4-2.5-4.3l1.2-4.6c.5-1.9 2.4-3 4.3-2.5s3 2.4 2.5 4.3l-1.2 4.6c-.4 1.6-1.9 2.6-3.4 2.6z"/><path d="M59.6 11.8c-.3 0-.6 0-.9-.1-1.9-.5-3-2.4-2.5-4.3l1.2-4.6c.5-1.9 2.4-3 4.3-2.5s3 2.4 2.5 4.3L63 9.2c-.4 1.6-1.9 2.6-3.4 2.6z"/><path d="M46.1 19.6c-.3 0-.6 0-.9-.1-1.9-.5-3-2.4-2.5-4.3l1.2-4.6c.5-1.9 2.4-3 4.3-2.5s3 2.4 2.5 4.3L49.5 17c-.4 1.6-1.8 2.6-3.4 2.6z"/><path d="M69.8 25c-.3 0-.6 0-.9-.1-1.9-.5-3-2.4-2.5-4.3l1.2-4.6c.5-1.9 2.4-3 4.3-2.5s3 2.4 2.5 4.3l-1.2 4.6c-.5 1.6-1.9 2.6-3.4 2.6z"/><path d="M22.2 25c-.3 0-.6 0-.9-.1-1.9-.5-3-2.4-2.5-4.3L20 16c.5-1.9 2.4-3 4.3-2.5s3 2.4 2.5 4.3l-1.2 4.6c-.4 1.6-1.9 2.6-3.4 2.6z"/><path d="M73.7 57.9c-1.5 0-2.8-.9-3.3-2.3-.1-.2-1.4-3-5.4-3-3.5 0-4.9 2-5.3 2.8-.4 1.4-1.8 2.5-3.4 2.5-1.1 0-2.2-.6-2.9-1.5l-.3-.6c-.4-.6-2.4-3.2-7.6-3.2-5 0-7 2.4-7.5 3.1-.5 1.3-1.8 2.2-3.2 2.2-1.2 0-2.3-.6-3-1.6-.2-.2-.3-.5-.4-.8-.3-.7-1.7-2.9-5.4-2.9-4.1 0-5.3 2.7-5.4 3-.5 1.4-1.8 2.2-3.3 2.2-1.9 0-3.5-1.6-3.5-3.5 0-8.7 4.3-16.9 11.8-22.3 5.6-4.1 12.7-6.4 19.9-6.4s14.3 2.3 19.9 6.4c7.5 5.5 11.8 13.6 11.8 22.3 0 2-1.6 3.6-3.5 3.6zM45.5 45.6c5 0 8.3 1.6 10.5 3.3 1.9-1.7 4.7-3.3 9-3.3 1.2 0 2.3.1 3.3.4-1.5-3.2-3.9-6-7-8.3-4.4-3.2-10-5-15.8-5-5.8 0-11.4 1.8-15.8 5-3.1 2.3-5.5 5.1-7 8.3 1-.2 2.1-.4 3.3-.4 4.2 0 7.1 1.6 9 3.3 2.2-1.7 5.5-3.3 10.5-3.3z"/></g></svg>