<svg version="1.1" id="Layer_1" xmlns="http://www.w3.org/2000/svg" x="0" y="0" viewBox="0 0 91 91" xml:space="preserve" width="91" height="91"><title>wet</title><g class="nc-icon-wrapper" fill="#eceff4"><path d="M49.4 47.2c-.9 0-1.8.4-2.4 1.2-1.2 1.6-7.4 10.1-7.4 15.7 0 6.6 5 10.5 9.8 10.5 4.8 0 9.8-3.9 9.8-10.5 0-2.6-1.3-6-3.8-10.3-2.7-4.7-3.9-6.6-6-6.6z"/><path d="M35 27.2c-.6-.7-1.5-1.2-2.4-1.2-.9 0-1.8.4-2.4 1.2C29 28.8 25 34.3 25 38.3c0 5 3.8 8 7.6 8s7.6-3 7.6-8c0-4-4-9.5-5.2-11.1z"/><path d="M64.2 21.7c-1.3-2.2-2.1-3.6-4-3.6-.9 0-1.8.4-2.4 1.2-1 1.4-3.5 4.9-3.5 7.6 0 3.8 3 6.1 5.8 6.1 2.9 0 5.8-2.3 5.8-6.1.1-1.4-.5-3.1-1.7-5.2z"/></g></svg>